<?xml version="1.0" standalone="no"?>
<!DOCTYPE svg PUBLIC "-//W3C//DTD SVG 20010904//EN"
 "http://www.w3.org/TR/2001/REC-SVG-20010904/DTD/svg10.dtd">
<svg version="1.0" xmlns="http://www.w3.org/2000/svg"
 width="300.000000pt" height="300.000000pt" viewBox="0 0 300.000000 300.000000"
 preserveAspectRatio="xMidYMid meet">
<metadata>
Created by potrace 1.10, written by Peter Selinger 2001-2011
</metadata>
<g transform="translate(0.000000,300.000000) scale(0.100000,-0.100000)"
fill="#000000" stroke="none">
<path d="M1377 2530 c-15 -12 -36 -50 -52 -93 -15 -39 -45 -117 -66 -172 -21
-55 -78 -208 -128 -340 -231 -618 -330 -874 -351 -915 -35 -68 -70 -109 -110
-130 -45 -23 -58 -38 -66 -77 -4 -23 0 -36 21 -61 l27 -32 265 0 265 0 29 29
c24 25 29 36 24 63 -6 38 -36 67 -77 75 -16 3 -40 19 -54 36 -24 28 -26 37
-21 93 5 60 59 237 79 262 8 9 72 12 259 12 230 0 249 -1 258 -18 21 -39 71
-239 71 -283 0 -56 -12 -73 -71 -97 -25 -11 -53 -27 -62 -37 -23 -23 -21 -77
4 -109 l20 -26 288 0 c277 0 289 1 315 21 20 16 26 29 26 60 0 43 -15 62 -80
103 -59 37 -77 80 -190 456 -16 52 -40 131 -53 175 -41 129 -198 646 -212 695
-44 159 -91 287 -111 307 -21 21 -32 23 -122 23 -84 0 -103 -3 -125 -20z m305
-272 c43 -139 145 -476 228 -748 83 -272 163 -521 177 -553 29 -63 64 -99 118
-119 33 -11 36 -15 33 -48 l-3 -35 -299 0 -298 0 -3 36 c-2 36 -1 37 55 52
124 35 129 98 34 424 l-15 53 -289 0 -289 0 -42 -127 c-34 -104 -42 -143 -43
-206 -1 -76 0 -79 31 -108 18 -16 53 -34 78 -40 44 -11 45 -13 45 -50 l0 -39
-280 0 -280 0 0 38 c0 34 3 39 35 51 52 18 102 76 145 166 21 44 158 401 306
793 l267 712 106 0 106 0 77 -252z"/>
<path d="M1352 1951 c-52 -146 -113 -319 -136 -383 l-43 -118 254 0 c140 0
252 4 249 8 -8 14 -216 723 -216 738 0 49 -27 -11 -108 -245z m187 -175 c44
-148 78 -273 75 -278 -3 -4 -88 -8 -190 -8 -151 0 -184 3 -184 14 0 14 156
464 185 533 13 29 18 35 25 23 4 -8 44 -136 89 -284z"/>
</g>
</svg>
